<svg width="32" height="32" viewBox="0 0 32 32" fill="none" xmlns="http://www.w3.org/2000/svg">
<g clip-path="url(#clip0_673_9)">
<mask id="mask0_673_9" style="mask-type:alpha" maskUnits="userSpaceOnUse" x="-21" y="-4" width="61" height="55">
<path d="M-3.26285 -3.99979L-20.6953 20.041L22 51.0002L39.4325 26.9594L-3.26285 -3.99979Z" fill="white"/>
</mask>
<g mask="url(#mask0_673_9)">
<path d="M31.7797 21.4099C37.2294 13.8944 35.4256 3.29059 27.751 -2.27442C20.0764 -7.83944 9.43712 -6.25826 3.98749 1.25723C-1.46214 8.77272 0.341559 19.3766 8.01617 24.9416C15.6908 30.5066 26.3301 28.9254 31.7797 21.4099Z" fill="#025B1D"/>
<path d="M32.7662 20.0491C38.2159 12.5336 36.4122 1.92975 28.7375 -3.63526C21.0629 -9.20028 10.4236 -7.6191 4.974 -0.103608C-0.475633 7.41188 1.32807 18.0157 9.00268 23.5807C16.6773 29.1458 27.3166 27.5646 32.7662 20.0491Z" fill="#A5FC8F"/>
<path d="M34.0819 18.2346C39.5315 10.7191 37.7278 0.115298 30.0532 -5.44972C22.3786 -11.0147 11.7393 -9.43355 6.28967 -1.91806C0.840041 5.59743 2.64374 16.2013 10.3184 21.7663C17.993 27.3313 28.6323 25.7501 34.0819 18.2346Z" fill="#F93684"/>
</g>
</g>
<defs>
<clipPath id="clip0_673_9">
<rect width="32" height="32" fill="white"/>
</clipPath>
</defs>
</svg>
